<?xml version="1.0" encoding="utf-8"?>
<!-- Generator: Adobe Illustrator 16.0.4, SVG Export Plug-In . SVG Version: 6.00 Build 0)  -->
<!DOCTYPE svg PUBLIC "-//W3C//DTD SVG 1.1//EN" "http://www.w3.org/Graphics/SVG/1.1/DTD/svg11.dtd">
<svg version="1.1" id="Layer_1" xmlns="http://www.w3.org/2000/svg" xmlns:xlink="http://www.w3.org/1999/xlink" x="0px" y="0px"
	 width="482.875px" height="482.875px" viewBox="0 0 482.875 482.875" enable-background="new 0 0 482.875 482.875"
	 xml:space="preserve">
<g>
	<g>
		<path fill="#AD122A" d="M199.496,182.321c14.522-1.969,27-2.772,39.096-6.457c9.135-2.782,17.823-6.27,25.713-11.682
			c9.137-6.27,15.428-14.819,20.2-24.666c4.769-9.835,9.283-19.82,14.621-29.343c4.618-8.24,10.34-15.854,15.369-23.875
			c4.587-7.315,7.625-15.29,9.065-23.828c0.313-1.862,1.131-3.072,3.098-3.291c2.367-0.263,3.037-1.714,2.775-3.877
			c-0.199-1.64-0.494-3.299-0.4-4.928c0.033-0.623,1.031-1.191,1.587-1.783c0.528,0.51,1.37,0.935,1.534,1.543
			c3.093,11.441,7.902,22.037,16.259,30.585c8.448,8.643,18.671,12.878,30.981,10.706c0.272-0.048,0.58-0.035,0.809-0.163
			c6.67-3.774,10.828,0.804,15.132,4.635c1.146,1.018,2.044,2.369,2.829,3.699c0.326,0.559,0.061,1.468,0.064,2.217
			c-0.671-0.031-1.392,0.079-2.005-0.122c-1.476-0.48-2.896-1.534-4.35-1.551c-1.328-0.017-3.043,0.719-3.856,1.716
			c-0.472,0.574,0.151,2.611,0.881,3.506c4.283,5.254,10.075,8.46,16.028,11.438c6.808,3.406,13.852,6.444,18.506,13.002
			c1.732,2.44,2.271,4.648,1.519,7.663c-1.486,5.966-2.338,12.087-3.615,18.107c-1.958,9.222-4.295,18.41-10.717,25.66
			c-2.682,3.025-6.348,5.219-9.709,7.583c-1.63,1.147-3.631,1.025-5.083-0.465c-2.489-2.556-4.998-5.134-7.157-7.964
			c-4.51-5.911-8.689-12.075-13.244-17.951c-1.367-1.764-3.4-3.098-5.328-4.32c-7.646-4.85-17.166-1.612-20.498,6.835
			c-2.68,6.792-3.057,13.994-2.055,20.947c1.776,12.355,4.473,24.581,6.885,36.842c2.24,11.396,3.907,22.781,2.99,34.496
			c-1.002,12.769-4.343,24.949-8.086,37.088c-1.057,3.424-1.854,6.932-2.956,10.343c-1.329,4.111-0.354,7.56,2.495,10.661
			c1.492,1.625,2.98,3.272,4.284,5.05c1.919,2.617,1.399,4.756-1.502,6.041c-11.558,5.124-23.654,8.095-36.308,8.443
			c-8.898,0.242-15.11-4.531-20.567-11.062c-3.077-3.678-6.871-6.795-10.56-9.906c-2.106-1.776-4.615-1.706-7.246-0.497
			c-2.138,0.982-4.506,1.552-6.828,2.031c-11.967,2.477-23.924,1.697-35.94,0.088c-13.583-1.819-27.235-3.379-40.904-0.72
			c-3.498,0.681-6.974,1.652-10.31,2.895c-1.405,0.521-2.999,1.875-3.51,3.229c-1.907,5.04-5.593,8.567-9.336,12.118
			c-0.666,0.632-1.279,1.319-1.894,2.002c-1.652,1.827-1.558,3.579,0.167,5.335c1.607,1.637,3.337,3.202,4.67,5.046
			c2.099,2.907,0.663,6.286-2.837,6.868c-11.794,1.957-23.569,4.09-35.419,5.639c-4.958,0.646-10.144,0.473-15.125-0.146
			c-13.718-1.71-18.703-13.156-17.508-24.349c0.899-8.438,3.703-16.353,7.143-23.978c4.142-9.178,4.482-18.649,3.616-28.377
			c-0.629-7.053-1.109-14.12-1.769-21.168c-0.66-7.062,1.035-13.734,3.348-20.254c2.458-6.934,5.378-13.701,7.835-20.63
			c1.687-4.76,2.953-9.669,4.348-14.526c0.302-1.049,0.454-2.167,0.507-3.262c0.726-14.857,0.874-29.768,2.291-44.558
			c1.251-13.073,3.714-26.066,10.501-37.721c0.508-0.873,0.942-1.838,1.63-2.546c0.629-0.645,1.558-0.999,2.355-1.481
			c0.446,0.813,1.184,1.592,1.283,2.446c0.316,2.739,0.406,5.503,0.566,8.259c0.843,14.451,2.821,28.761,5.864,42.899
			c0.922,4.284,2.572,8.44,4.196,12.535c0.947,2.392,2.984,3.521,5.755,3.355C174.988,183.636,188.31,182.935,199.496,182.321z"/>
	</g>
	<g>
		<path fill="none" d="M199.496,182.321c14.522-1.969,27-2.772,39.096-6.457c9.135-2.782,17.823-6.27,25.713-11.682
			c9.137-6.27,15.428-14.819,20.2-24.666c4.769-9.835,9.283-19.82,14.621-29.343c4.618-8.24,10.34-15.854,15.369-23.875
			c4.587-7.315,7.625-15.29,9.065-23.828c0.313-1.862,1.131-3.072,3.098-3.291c2.367-0.263,3.037-1.714,2.775-3.877
			c-0.199-1.64-0.494-3.299-0.4-4.928c0.033-0.623,1.031-1.191,1.587-1.783c0.528,0.51,1.37,0.935,1.534,1.543
			c3.093,11.441,7.902,22.037,16.259,30.585c8.448,8.643,18.671,12.878,30.981,10.706c0.272-0.048,0.58-0.035,0.809-0.163
			c6.67-3.774,10.828,0.804,15.132,4.635c1.146,1.018,2.044,2.369,2.829,3.699c0.326,0.559,0.061,1.468,0.064,2.217
			c-0.671-0.031-1.392,0.079-2.005-0.122c-1.476-0.48-2.896-1.534-4.35-1.551c-1.328-0.017-3.043,0.719-3.856,1.716
			c-0.472,0.574,0.151,2.611,0.881,3.506c4.283,5.254,10.075,8.46,16.028,11.438c6.808,3.406,13.852,6.444,18.506,13.002
			c1.732,2.44,2.271,4.648,1.519,7.663c-1.486,5.966-2.338,12.087-3.615,18.107c-1.958,9.222-4.295,18.41-10.717,25.66
			c-2.682,3.025-6.348,5.219-9.709,7.583c-1.63,1.147-3.631,1.025-5.083-0.465c-2.489-2.556-4.998-5.134-7.157-7.964
			c-4.51-5.911-8.689-12.075-13.244-17.951c-1.367-1.764-3.4-3.098-5.328-4.32c-7.646-4.85-17.166-1.612-20.498,6.835
			c-2.68,6.792-3.057,13.994-2.055,20.947c1.776,12.355,4.473,24.581,6.885,36.842c2.24,11.396,3.907,22.781,2.99,34.496
			c-1.002,12.769-4.343,24.949-8.086,37.088c-1.057,3.424-1.854,6.932-2.956,10.343c-1.329,4.111-0.354,7.56,2.495,10.661
			c1.492,1.625,2.98,3.272,4.284,5.05c1.919,2.617,1.399,4.756-1.502,6.041c-11.558,5.124-23.654,8.095-36.308,8.443
			c-8.898,0.242-15.11-4.531-20.567-11.062c-3.077-3.678-6.871-6.795-10.56-9.906c-2.106-1.776-4.615-1.706-7.246-0.497
			c-2.138,0.982-4.506,1.552-6.828,2.031c-11.967,2.477-23.924,1.697-35.94,0.088c-13.583-1.819-27.235-3.379-40.904-0.72
			c-3.498,0.681-6.974,1.652-10.31,2.895c-1.405,0.521-2.999,1.875-3.51,3.229c-1.907,5.04-5.593,8.567-9.336,12.118
			c-0.666,0.632-1.279,1.319-1.894,2.002c-1.652,1.827-1.558,3.579,0.167,5.335c1.607,1.637,3.337,3.202,4.67,5.046
			c2.099,2.907,0.663,6.286-2.837,6.868c-11.794,1.957-23.569,4.09-35.419,5.639c-4.958,0.646-10.144,0.473-15.125-0.146
			c-13.718-1.71-18.703-13.156-17.508-24.349c0.899-8.438,3.703-16.353,7.143-23.978c4.142-9.178,4.482-18.649,3.616-28.377
			c-0.629-7.053-1.109-14.12-1.769-21.168c-0.66-7.062,1.035-13.734,3.348-20.254c2.458-6.934,5.378-13.701,7.835-20.63
			c1.687-4.76,2.953-9.669,4.348-14.526c0.302-1.049,0.454-2.167,0.507-3.262c0.726-14.857,0.874-29.768,2.291-44.558
			c1.251-13.073,3.714-26.066,10.501-37.721c0.508-0.873,0.942-1.838,1.63-2.546c0.629-0.645,1.558-0.999,2.355-1.481
			c0.446,0.813,1.184,1.592,1.283,2.446c0.316,2.739,0.406,5.503,0.566,8.259c0.843,14.451,2.821,28.761,5.864,42.899
			c0.922,4.284,2.572,8.44,4.196,12.535c0.947,2.392,2.984,3.521,5.755,3.355C174.988,183.636,188.31,182.935,199.496,182.321z"/>
	</g>
	<g>
		<path fill="none" stroke="#000000" stroke-width="2" stroke-miterlimit="10" d="M199.496,182.321
			c14.522-1.969,27-2.772,39.096-6.457c9.135-2.782,17.823-6.27,25.713-11.682c9.137-6.27,15.428-14.819,20.2-24.666
			c4.769-9.835,9.283-19.82,14.621-29.343c4.618-8.24,10.34-15.854,15.369-23.875c4.587-7.315,7.625-15.29,9.065-23.828
			c0.313-1.862,1.131-3.072,3.098-3.291c2.367-0.263,3.037-1.714,2.775-3.877c-0.199-1.64-0.494-3.299-0.4-4.928
			c0.033-0.623,1.031-1.191,1.587-1.783c0.528,0.51,1.37,0.935,1.534,1.543c3.093,11.441,7.902,22.037,16.259,30.585
			c8.448,8.643,18.671,12.878,30.981,10.706c0.272-0.048,0.58-0.035,0.809-0.163c6.67-3.774,10.828,0.804,15.132,4.635
			c1.146,1.018,2.044,2.369,2.829,3.699c0.326,0.559,0.061,1.468,0.064,2.217c-0.671-0.031-1.392,0.079-2.005-0.122
			c-1.476-0.48-2.896-1.534-4.35-1.551c-1.328-0.017-3.043,0.719-3.856,1.716c-0.472,0.574,0.151,2.611,0.881,3.506
			c4.283,5.254,10.075,8.46,16.028,11.438c6.808,3.406,13.852,6.444,18.506,13.002c1.732,2.44,2.271,4.648,1.519,7.663
			c-1.486,5.966-2.338,12.087-3.615,18.107c-1.958,9.222-4.295,18.41-10.717,25.66c-2.682,3.025-6.348,5.219-9.709,7.583
			c-1.63,1.147-3.631,1.025-5.083-0.465c-2.489-2.556-4.998-5.134-7.157-7.964c-4.51-5.911-8.689-12.075-13.244-17.951
			c-1.367-1.764-3.4-3.098-5.328-4.32c-7.646-4.85-17.166-1.612-20.498,6.835c-2.68,6.792-3.057,13.994-2.055,20.947
			c1.776,12.355,4.473,24.581,6.885,36.842c2.24,11.396,3.907,22.781,2.99,34.496c-1.002,12.769-4.343,24.949-8.086,37.088
			c-1.057,3.424-1.854,6.932-2.956,10.343c-1.329,4.111-0.354,7.56,2.495,10.661c1.492,1.625,2.98,3.272,4.284,5.05
			c1.919,2.617,1.399,4.756-1.502,6.041c-11.558,5.124-23.654,8.095-36.308,8.443c-8.898,0.242-15.11-4.531-20.567-11.062
			c-3.077-3.678-6.871-6.795-10.56-9.906c-2.106-1.776-4.615-1.706-7.246-0.497c-2.138,0.982-4.506,1.552-6.828,2.031
			c-11.967,2.477-23.924,1.697-35.94,0.088c-13.583-1.819-27.235-3.379-40.904-0.72c-3.498,0.681-6.974,1.652-10.31,2.895
			c-1.405,0.521-2.999,1.875-3.51,3.229c-1.907,5.04-5.593,8.567-9.336,12.118c-0.666,0.632-1.279,1.319-1.894,2.002
			c-1.652,1.827-1.558,3.579,0.167,5.335c1.607,1.637,3.337,3.202,4.67,5.046c2.099,2.907,0.663,6.286-2.837,6.868
			c-11.794,1.957-23.569,4.09-35.419,5.639c-4.958,0.646-10.144,0.473-15.125-0.146c-13.718-1.71-18.703-13.156-17.508-24.349
			c0.899-8.438,3.703-16.353,7.143-23.978c4.142-9.178,4.482-18.649,3.616-28.377c-0.629-7.053-1.109-14.12-1.769-21.168
			c-0.66-7.062,1.035-13.734,3.348-20.254c2.458-6.934,5.378-13.701,7.835-20.63c1.687-4.76,2.953-9.669,4.348-14.526
			c0.302-1.049,0.454-2.167,0.507-3.262c0.726-14.857,0.874-29.768,2.291-44.558c1.251-13.073,3.714-26.066,10.501-37.721
			c0.508-0.873,0.942-1.838,1.63-2.546c0.629-0.645,1.558-0.999,2.355-1.481c0.446,0.813,1.184,1.592,1.283,2.446
			c0.316,2.739,0.406,5.503,0.566,8.259c0.843,14.451,2.821,28.761,5.864,42.899c0.922,4.284,2.572,8.44,4.196,12.535
			c0.947,2.392,2.984,3.521,5.755,3.355C174.988,183.636,188.31,182.935,199.496,182.321z"/>
	</g>
</g>
<g enable-background="new    ">
	<path d="M90.977,398.327c0,6.69-2.371,12.224-7.113,16.597c-4.742,4.375-10.79,6.562-18.141,6.562
		c-4.485,0-10.661-1.506-18.526-4.521c-0.589-0.221-1.103-0.331-1.544-0.331c-1.251,0-2.206,1.323-2.867,3.971
		c-0.221,0.808-0.515,1.213-0.882,1.213c-0.589,0-0.882-0.516-0.882-1.544c0-0.955,0.183-2.646,0.551-5.073
		c0.293-1.984,0.441-4.301,0.441-6.947c0-2.131-0.038-3.821-0.11-5.072c-0.148-2.499-0.221-3.971-0.221-4.411
		c0-1.176,0.367-1.765,1.103-1.765c0.734,0,1.396,1.582,1.985,4.742c1.029,5.441,3.344,9.668,6.947,12.682
		c3.896,3.236,8.086,4.853,12.572,4.853c3.97,0,7.314-1.25,10.035-3.75c2.719-2.498,4.08-5.55,4.08-9.152
		c0-3.088-0.882-5.551-2.646-7.389c-1.323-1.323-5.588-3.933-12.792-7.83c-8.014-4.263-13.454-8.527-16.321-12.792
		c-2.646-3.896-3.97-8.527-3.97-13.895c0-6.322,2.242-11.561,6.727-15.715c4.484-4.152,10.146-6.23,16.983-6.23
		c3.675,0,7.609,0.882,11.799,2.646c1.396,0.589,2.388,0.882,2.978,0.882c1.103,0,1.837-0.954,2.206-2.867
		c0.146-0.661,0.478-0.992,0.993-0.992c0.734,0,1.103,0.479,1.103,1.434c0,0.369-0.074,1.397-0.22,3.088
		c-0.148,1.692-0.221,3.088-0.221,4.19c0,3.823,0.146,7.058,0.441,9.704c0.073,0.221,0.11,0.516,0.11,0.883
		c0,0.661-0.294,0.992-0.882,0.992c-0.662,0-1.323-1.175-1.985-3.529c-0.662-2.352-1.819-4.687-3.474-7.002
		c-1.654-2.316-3.327-3.987-5.018-5.018c-2.206-1.323-4.78-1.985-7.719-1.985c-4.118,0-7.389,0.993-9.815,2.978
		c-2.426,1.985-3.639,4.706-3.639,8.16c0,3.016,1.139,5.68,3.419,7.995c2.278,2.316,6.653,5.276,13.123,8.878
		c7.94,4.411,13.195,7.939,15.77,10.586C89.102,387.448,90.977,392.372,90.977,398.327z"/>
	<path d="M138.395,382.337c0,1.765-0.515,3.198-1.544,4.301c-1.03,1.103-2.354,1.654-3.97,1.654c-3.897,0-5.844-1.727-5.844-5.183
		c0-0.883,0.238-1.93,0.717-3.144c0.477-1.213,0.717-2.076,0.717-2.591c0-1.396-0.534-2.592-1.599-3.584
		c-1.067-0.993-2.371-1.489-3.915-1.489c-6.69,0-10.035,7.463-10.035,22.387c0,8.529,1.47,14.63,4.411,18.306
		c2.278,2.795,5.073,4.19,8.381,4.19c3.455,0,6.984-2.242,10.587-6.727c0.441-0.588,0.844-0.883,1.213-0.883
		c0.293,0,0.441,0.221,0.441,0.662c0,1.397-1.323,3.346-3.97,5.845c-3.824,3.603-8.419,5.403-13.785,5.403
		c-6.617,0-12.26-2.371-16.927-7.113c-4.67-4.741-7.003-10.493-7.003-17.258c0-7.351,2.462-13.545,7.389-18.582
		c4.925-5.034,10.99-7.554,18.196-7.554c4.631,0,8.546,1.103,11.744,3.309C136.795,376.492,138.395,379.177,138.395,382.337z"/>
	<path d="M191.878,396.673c0,7.868-3.088,14.226-9.263,19.078c-4.853,3.823-10.184,5.734-15.99,5.734
		c-6.911,0-12.885-2.481-17.92-7.443c-5.037-4.963-7.554-10.824-7.554-17.59c0-7.058,2.518-13.067,7.554-18.03
		c5.035-4.962,11.119-7.443,18.25-7.443c6.837,0,12.699,2.52,17.589,7.554C189.433,383.569,191.878,389.615,191.878,396.673z
		 M175.227,396.783c0-9.115-0.622-15.364-1.863-18.747c-1.389-3.749-3.618-5.624-6.686-5.624c-2.85,0-5.078,1.968-6.686,5.9
		c-1.607,3.934-2.411,9.355-2.411,16.266c0,9.632,0.95,16.469,2.85,20.511c1.534,3.236,3.688,4.853,6.465,4.853
		c3.434,0,5.7-2.058,6.796-6.176C174.715,409.87,175.227,404.21,175.227,396.783z"/>
	<path d="M232.68,412.994c0,0.81-0.705,1.875-2.111,3.198c-3.629,3.456-8.629,5.183-14.998,5.183c-5.852,0-9.703-1.434-11.553-4.301
		c-0.741-1.103-1.168-2.132-1.278-3.088c-0.11-0.954-0.166-3.418-0.166-7.389v-5.293c0.146-1.396,0.221-2.867,0.221-4.411
		l-0.221-2.315v-9.925v-7.94c0-1.323-0.185-2.095-0.551-2.315c-0.369-0.221-1.472-0.331-3.309-0.331
		c-2.206,0-3.308-0.293-3.308-0.882c0-0.441,0.403-0.734,1.213-0.883c6.91-0.221,12.865-3.97,17.865-11.248
		c0.662-1.028,1.175-1.544,1.544-1.544c0.441,0,0.662,0.516,0.662,1.544c-0.074,6.323,0.183,9.778,0.772,10.366
		c0.587,0.589,2.388,0.882,5.404,0.882c3.087,0,5.255-0.146,6.506-0.441c0.146-0.072,0.292-0.109,0.441-0.109
		c0.293,0,0.441,0.23,0.441,0.692c0,1.078-0.474,1.618-1.421,1.618c-2.99,0.077-6.307,0.115-9.951,0.115c-0.291,0-0.801,0-1.53,0
		v2.304c0,19.604,0.146,31.088,0.441,34.451c0.672,4.242,2.76,6.363,6.269,6.363c1.566,0,3.581-1.103,6.044-3.309
		c1.192-1.028,1.938-1.544,2.238-1.544C232.568,412.442,232.68,412.627,232.68,412.994z"/>
	<path d="M267.527,412.994c0,0.81-0.705,1.875-2.111,3.198c-3.629,3.456-8.629,5.183-14.998,5.183
		c-5.852,0-9.702-1.434-11.553-4.301c-0.741-1.103-1.168-2.132-1.278-3.088c-0.11-0.954-0.166-3.418-0.166-7.389v-5.293
		c0.146-1.396,0.221-2.867,0.221-4.411l-0.221-2.315v-9.925v-7.94c0-1.323-0.185-2.095-0.551-2.315
		c-0.369-0.221-1.472-0.331-3.309-0.331c-2.206,0-3.308-0.293-3.308-0.882c0-0.441,0.403-0.734,1.213-0.883
		c6.91-0.221,12.865-3.97,17.865-11.248c0.661-1.028,1.175-1.544,1.544-1.544c0.441,0,0.662,0.516,0.662,1.544
		c-0.074,6.323,0.182,9.778,0.771,10.366c0.588,0.589,2.389,0.882,5.404,0.882c3.087,0,5.255-0.146,6.506-0.441
		c0.146-0.072,0.293-0.109,0.441-0.109c0.293,0,0.44,0.23,0.44,0.692c0,1.078-0.474,1.618-1.421,1.618
		c-2.99,0.077-6.307,0.115-9.951,0.115c-0.291,0-0.801,0-1.53,0v2.304c0,19.604,0.146,31.088,0.441,34.451
		c0.672,4.242,2.761,6.363,6.269,6.363c1.566,0,3.58-1.103,6.045-3.309c1.191-1.028,1.938-1.544,2.238-1.544
		C267.415,412.442,267.527,412.627,267.527,412.994z"/>
	<path d="M313.512,373.074c0,0.515-0.148,0.827-0.441,0.938c-0.294,0.109-1.322,0.165-3.088,0.165c-1.984,0-3.161,0.11-3.528,0.331
		l-0.661,1.213l-1.324,3.859c-0.589,1.765-1.912,5.331-3.969,10.697c-0.148,0.44-1.766,4.962-4.854,13.563
		c-7.277,20.363-11.983,32.679-14.115,36.943c-2.646,5.293-6.029,7.939-10.145,7.939c-2.354,0-4.246-0.699-5.68-2.095
		c-1.434-1.397-2.15-3.236-2.15-5.515c0-3.603,1.984-5.403,5.955-5.403c1.323,0,2.389,0.441,3.197,1.323
		c0.367,0.367,0.993,1.396,1.875,3.088c0.514,0.734,1.213,1.103,2.096,1.103c1.47,0,2.885-1.231,4.246-3.694
		c1.359-2.464,3.215-7.114,5.568-13.951c-0.588-1.177-1.725-3.786-3.412-7.83c-2.209-5.586-5.153-12.898-8.834-21.941
		c-0.881-2.205-2.859-7.023-5.939-14.451c-1.03-2.603-1.914-4.151-2.65-4.649c-0.735-0.496-2.428-0.783-5.077-0.861
		c-0.882,0-1.325-0.257-1.325-0.771c0-0.514,0.441-0.772,1.323-0.772h1.985c1.103,0,2.756,0,4.962,0s3.896,0,5.073,0h13.453
		c0.441,0,0.955,0,1.545,0c0.808,0,1.213,0.259,1.213,0.772c0,0.661-1.104,0.956-3.309,0.882c-2.206-0.072-3.309,0.405-3.309,1.434
		c0,0.735,0.293,1.875,0.883,3.419c0.808,2.059,1.248,3.271,1.322,3.639c3.602,9.999,6.543,17.608,8.822,22.827
		c6.838-17.424,10.256-27.349,10.256-29.774c0-0.809-0.846-1.213-2.536-1.213c-3.528,0-5.294-0.331-5.294-0.993
		c0-0.661,0.441-0.992,1.324-0.992c0.734,0,1.47,0.038,2.205,0.11c1.396,0.148,3.309,0.221,5.734,0.221
		c0.293,0,1.379-0.056,3.254-0.165c1.874-0.11,3.104-0.166,3.693-0.166h0.662C313.182,372.302,313.512,372.561,313.512,373.074z"/>
	<path d="M363.687,398.548c0,6.544-2.941,12.003-8.822,16.376c-5.882,4.375-13.271,6.562-22.165,6.562
		c-6.176,0-11.011-1.177-14.502-3.529c-3.492-2.352-5.238-5.586-5.238-9.704c0-2.646,0.827-4.814,2.481-6.506
		c1.654-1.69,3.805-2.537,6.451-2.537c4.999,0,7.499,2.28,7.499,6.838c0,3.528-2.391,5.992-7.168,7.389
		c-1.692,0.515-2.537,1.103-2.537,1.764c0,0.811,1.049,1.654,3.144,2.537c2.095,0.882,4.171,1.323,6.23,1.323
		c5.366,0,9.556-1.801,12.571-5.404c3.014-3.601,4.521-8.638,4.521-15.107c0-6.248-1.803-10.697-5.403-13.344
		c-2.427-1.765-5.294-2.646-8.602-2.646h-1.544c-0.516,0-1.361,0-2.537,0c-0.881,0-1.322-0.293-1.322-0.879
		c0-0.514,0.165-0.843,0.496-0.989c0.33-0.146,1.599-0.402,3.805-0.77c3.014-0.512,5.531-2.288,7.554-5.33
		c2.021-3.039,3.032-6.539,3.032-10.495c0-4.028-1.213-7.308-3.639-9.835c-2.426-2.528-5.588-3.793-9.484-3.793
		c-2.5,0-4.705,0.552-6.616,1.654c-1.913,1.103-2.867,2.39-2.867,3.86c0,0.661,0.482,1.066,1.449,1.213
		c5.649,1.03,8.476,3.456,8.476,7.278c0,1.912-0.593,3.474-1.778,4.687c-1.185,1.213-2.739,1.819-4.666,1.819
		c-2.593,0-4.63-0.771-6.112-2.315c-1.48-1.544-2.221-3.64-2.221-6.286c0-4.704,1.947-8.509,5.846-11.413
		c3.895-2.904,8.968-4.356,15.218-4.356c7.204,0,13.013,1.526,17.423,4.576c4.412,3.052,6.617,7.041,6.617,11.966
		c0,3.897-1.673,7.388-5.018,10.476c-3.346,3.088-7.774,5.221-13.288,6.396l0.11,0.551c5.293,0.074,10.071,1.397,14.336,3.971
		C360.93,387.851,363.687,392.521,363.687,398.548z"/>
	<path d="M445.181,381.455c0,8.381-1.913,15.623-5.734,21.725c-3.97,6.396-9.742,11.065-17.313,14.005
		c-5.146,1.985-12.83,2.978-23.048,2.978c-0.148,0-0.956,0-2.427,0s-3.603,0-6.396,0h-3.97c-0.148,0-2.537,0-7.168,0h-6.947
		c-1.104,0-1.654-0.293-1.654-0.882c0-0.734,1.028-1.065,3.088-0.993c3.16,0.074,5.072-0.478,5.734-1.654
		c0.293-0.513,0.441-2.757,0.441-6.727v-56.131c0-3.234-0.221-5.219-0.662-5.955c-0.736-1.323-2.611-1.947-5.625-1.874
		c-1.617,0.073-2.426-0.293-2.426-1.104c0-0.661,0.514-0.992,1.545-0.992h1.984c4.411,0,8.674,0.038,12.792,0.11
		c5.881,0.074,10.438,0.11,13.675,0.11c13.379,0,23.635,2.757,30.767,8.271C440.731,359.253,445.181,368.957,445.181,381.455z
		 M426.103,381.509c0-12.148-1.802-21.039-5.403-26.672c-3.604-5.633-9.264-8.45-16.982-8.45c-2.795,0-4.632,0.295-5.514,0.884
		c-1.178,0.738-1.765,2.468-1.765,5.19v56.55c0,4.858,0.292,7.547,0.882,8.062c0.883,0.811,2.83,1.215,5.845,1.215
		C418.455,418.287,426.103,406.027,426.103,381.509z"/>
</g>
<rect x="2.631" y="2.631" fill="none" stroke="#000000" stroke-width="5.2632" stroke-miterlimit="10" width="477.612" height="477.612"/>
</svg>
